<?xml version="1.0" encoding="UTF-8" standalone="no"?>
<svg
   xmlns:dc="http://purl.org/dc/elements/1.1/"
   xmlns:cc="http://creativecommons.org/ns#"
   xmlns:rdf="http://www.w3.org/1999/02/22-rdf-syntax-ns#"
   xmlns:svg="http://www.w3.org/2000/svg"
   xmlns="http://www.w3.org/2000/svg"
   xmlns:sodipodi="http://sodipodi.sourceforge.net/DTD/sodipodi-0.dtd"
   xmlns:inkscape="http://www.inkscape.org/namespaces/inkscape"
   width="100"
   height="100"
   version="1.1"
   id="svg32"
   sodipodi:docname="logo-mini.svg"
   inkscape:export-filename="C:\Users\Kirill\Desktop\logo-minix64.png"
   inkscape:export-xdpi="61.439999"
   inkscape:export-ydpi="61.439999"
   inkscape:version="1.0.2 (e86c870879, 2021-01-15, custom)">
  <metadata
     id="metadata38">
    <rdf:RDF>
      <cc:Work
         rdf:about="">
        <dc:format>image/svg+xml</dc:format>
        <dc:type
           rdf:resource="http://purl.org/dc/dcmitype/StillImage" />
      </cc:Work>
    </rdf:RDF>
  </metadata>
  <defs
     id="defs36" />
  <sodipodi:namedview
     pagecolor="#ffffff"
     bordercolor="#666666"
     borderopacity="1"
     objecttolerance="10"
     gridtolerance="10"
     guidetolerance="10"
     inkscape:pageopacity="0"
     inkscape:pageshadow="2"
     inkscape:window-width="2498"
     inkscape:window-height="1417"
     id="namedview34"
     showgrid="false"
     inkscape:zoom="10.08"
     inkscape:cx="23.90873"
     inkscape:cy="50"
     inkscape:window-x="1042"
     inkscape:window-y="-8"
     inkscape:window-maximized="1"
     inkscape:current-layer="svg32"
     inkscape:document-rotation="0" />
  <style
     type="text/css"
     id="style2">
        .st0{
        fill:#707b2a;
        }
        @font-face {
        font-family: 'Eagle Lake';
        src: url('EagleLakeRegular.ttf');
        }
    </style>
  <g
     id="g7">
    <title
       id="title4">background</title>
    <rect
       x="-1"
       y="-1"
       width="102"
       height="102"
       id="canvas_background"
       fill="none" />
  </g>
  <g
     id="g30"
     transform="translate(0.89285714,-0.09920635)">
    <title
       id="title9">Layer 1</title>
    <g
       id="XMLID_2_">
      <path
         id="XMLID_3_"
         class="st0"
         d="m 52.026387,8.741201 c 0.2,0.8 0.3,1.7 0.2,2.8 -0.1,1.1 -0.3,2.4 -0.6,3.8 -0.3,1.4 -0.8,2.9 -1.4,4.5 -0.6,1.6 -1.3,3.2 -2.1,4.9 -0.8,1.6 -1.8,3.3 -2.8,4.9 -1,1.6 -2.2,3.2 -3.5,4.6 -2,2.4 -3.8,4.6 -5.4,6.6 -1.5,2 -2.9,3.8 -4,5.5 -1.1,1.7 -2,3.2 -2.7,4.5 -0.7,1.3 -1.2,2.6 -1.6,3.7 -0.6,0.5 -1.3,1 -2,1.7 -0.6,0.6 -1.4,1.3 -2.3,2.1 -0.9,0.8 -1.8,1.8 -2.8,2.8 -0.5,-3.8 -1.2,-7.7 -2.1,-11.7 -0.9,-4 -1.9,-7.8 -3,-11.6 -1.1,-3.8 -2.4,-7.4 -3.7,-10.9 -1.4,-3.5 -2.7,-6.6 -4.1,-9.5 -0.9,-1.8 -1.8,-3 -2.7,-3.6 -0.9,-0.7 -1.9,-1 -2.9,-1 -0.9,0 -1.9,0.2 -3,0.6 0.7,-0.6 1.5,-1.3 2.4,-2 0.9,-0.7 1.8,-1.5 2.8,-2.2 1,-0.7 1.9,-1.3 2.9,-1.8 1,-0.5 1.9,-0.7 2.8,-0.7 0.9,0 1.8,0.2 2.6,0.7 0.9,0.5 1.6,1.2 2.1,2.3 0.3,0.5 0.7,1.5 1.3,2.9 0.6,1.4 1.3,3 2.1,5 0.8,2 1.7,4.2 2.6,6.7 0.9,2.5 1.8,5.1 2.7,7.8 0.9,2.7 1.7,5.5 2.4,8.3 0.8,2.8 1.3,5.7 1.8,8.4 1,-1.5 1.9,-2.8 2.8,-4.1 0.9,-1.2 1.6,-2.3 2.2,-3.2 0.8,-1.1 1.4,-2 2,-2.8 1.4,-2 2.6,-4 3.7,-6 1.1,-2 2,-3.9 2.8,-5.7 0.8,-1.8 1.4,-3.6 1.8,-5.2 0.4,-1.6 0.6,-3.2 0.6,-4.6 0,-0.6 0,-1.1 -0.1,-1.7 -0.1,-0.6 -0.2,-1.1 -0.5,-1.6 -0.2,-0.5 -0.5,-0.9 -0.9,-1.2 -0.4,-0.3 -0.9,-0.5 -1.5,-0.5 -0.4,0 -1,0.1 -1.5,0.3 -0.6,0.2 -1.2,0.6 -2,1.2 0.9,-0.8 1.8,-1.7 2.7,-2.6 0.9,-0.9 1.8,-1.7 2.8,-2.4 0.9,-0.7 1.9,-1.3 2.9,-1.7 1,-0.4 2,-0.7 3.1,-0.7 0.8,0 1.4,0.2 2,0.5 0.5,0.4 0.9,1 1.1,1.9 z"
         fill="white" />
      <path
         id="XMLID_22_"
         class="st0"
         d="m 97.661437,7.941201 c 0.4,0.2 0.6,0.5 0.6,0.8 0,0.4 -0.2,0.8 -0.5,1.3 -0.3,0.5 -0.7,1 -1.3,1.6 -0.6,0.6 -1.2,1.1 -1.8,1.7 -0.5,0.4 -1.2,0.9 -1.9,1.4 -0.6,0.5 -1.4,1 -2.2,1.6 -0.8,0.6 -1.9,1.2 -3,2 0.6,-0.6 1.1,-1.1 1.3,-1.6 0.3,-0.5 0.4,-0.9 0.4,-1.3 0,-0.5 -0.2,-1 -0.6,-1.4 -0.4,-0.4 -1,-0.7 -1.6,-1 -0.7,-0.3 -1.4,-0.5 -2.2,-0.7 -0.8,-0.2 -1.6,-0.3 -2.4,-0.4 -0.8,-0.1 -1.5,-0.1 -2.1,-0.2 -0.6,0 -1.1,0 -1.4,0 -1.2,0 -2.5,0.1 -3.8,0.4 -1.3,0.3 -2.4,0.7 -3.4,1.2 -1,0.6 -1.8,1.3 -2.5,2.3 -0.7,1 -0.9,2.1 -0.9,3.5 0,1.6 0.4,3 1.3,4.1 0.9,1.1 2.1,2.1 3.5,3 1.4,0.9 3.1,1.6 4.9,2.2 1.8,0.6 3.7,1.2 5.6,1.8 1.9,0.6 3.7,1.2 5.5,1.7 1.8,0.6 3.3,1.3 4.6,2 1.7,1 3,2.2 3.7,3.6 0.7,1.4 1.1,2.8 1.1,4.3 0,2 -0.5,3.8 -1.6,5.6 -1.1,1.8 -2.4,3.4 -4.1,4.9 -1.7,1.5 -3.6,2.9 -5.7,4.1 -2.1,1.2 -4.3,2.3 -6.5,3.1 -2.2,0.8 -4.3,1.5 -6.3,2 -2,0.5 -3.8,0.7 -5.3,0.7 -1.9,0 -3.7,-0.2 -5.1,-0.6 -1.4,-0.4 -2.7,-0.8 -3.7,-1.4 -1,-0.6 -1.7,-1.1 -2.2,-1.7 -0.5,-0.6 -0.7,-1 -0.6,-1.4 0,-0.4 0.3,-0.9 0.7,-1.4 0.4,-0.5 1,-1 1.7,-1.6 0.7,-0.6 1.7,-1.2 2.9,-1.9 1.2,-0.7 2.6,-1.5 4.3,-2.3 -0.7,0.7 -1,1.3 -0.9,1.8 0.1,0.5 0.4,1.1 1,1.5 0.6,0.4 1.4,0.8 2.4,1.2 1,0.4 2,0.6 3.1,0.8 1.1,0.2 2.2,0.4 3.3,0.5 1.1,0.1 2.1,0.2 2.9,0.2 1.4,0 2.9,-0.2 4.3,-0.5 1.4,-0.3 2.7,-0.8 3.8,-1.5 1.1,-0.7 2.1,-1.5 2.8,-2.6 0.7,-1.1 1.1,-2.4 1.1,-4 0,-0.9 -0.2,-1.9 -0.6,-2.8 -0.4,-1 -1,-1.9 -1.9,-2.8 -0.9,-0.9 -2.1,-1.8 -3.6,-2.6 -1.5,-0.8 -3.4,-1.5 -5.7,-2.1 -3.5,-0.9 -6.4,-1.9 -8.8,-2.8 -2.4,-1 -4.3,-2 -5.7,-3.1 -1.4,-1.1 -2.4,-2.3 -3,-3.7 -0.6,-1.3 -0.8,-2.8 -0.6,-4.4 0.1,-1.9 0.7,-3.6 1.7,-5.2 1,-1.6 2.3,-3 3.8,-4.2 1.5,-1.2 3.3,-2.3 5.2,-3.2 1.9,-0.9 3.9,-1.7 5.9,-2.3 2,-0.6 4,-1 5.9,-1.3 1.9,-0.3 3.6,-0.4 5.1,-0.4 1.1,0 2.2,0 3.2,0.1 1,0.1 1.9,0.2 2.7,0.3 0.8,0.1 1.4,0.3 2,0.4 0.6,0.5 1,0.6 1.2,0.7 z" />
      <text
         class="st0"
         stroke-width="0"
         x="28.44735"
         y="58.805832"
         id="svg_4"
         font-size="24px"
         font-family="'Eagle Lake', 'Shadows Into Light', serif"
         text-anchor="start"
         xml:space="preserve"
         transform="matrix(3.0210862,0,0,2.6576294,-68.265768,-70.455091)">M</text>
    </g>
    <g
       id="XMLID_45_" />
    <g
       id="XMLID_46_" />
    <g
       id="XMLID_47_" />
    <g
       id="XMLID_48_" />
    <g
       id="XMLID_49_" />
    <g
       id="XMLID_50_" />
    <g
       id="XMLID_51_" />
    <g
       id="XMLID_52_" />
    <g
       id="XMLID_53_" />
    <g
       id="XMLID_54_" />
    <g
       id="XMLID_55_" />
    <g
       id="XMLID_56_" />
    <g
       id="XMLID_57_" />
    <g
       id="XMLID_58_" />
    <g
       id="XMLID_59_" />
  </g>
</svg>
